<?xml version="1.0" standalone="no"?>
<!DOCTYPE svg PUBLIC "-//W3C//DTD SVG 20010904//EN"
 "http://www.w3.org/TR/2001/REC-SVG-20010904/DTD/svg10.dtd">
<svg version="1.0" xmlns="http://www.w3.org/2000/svg"
 width="1235.000000pt" height="854.000000pt" viewBox="0 0 1235.000000 854.000000"
 preserveAspectRatio="xMidYMid meet">

<g transform="translate(0.000000,854.000000) scale(0.100000,-0.100000)"
fill="#000000" stroke="none">
<path d="M5720 6737 c-3 -2 -50 -7 -105 -10 -1229 -76 -2899 -685 -3750 -1368
-276 -222 -475 -429 -788 -821 -86 -108 -97 -144 -53 -174 21 -13 29 -14 50
-2 14 7 116 121 228 253 392 465 654 694 1090 956 828 498 1973 882 2918 978
273 28 345 32 600 32 408 1 740 -39 1136 -136 1113 -273 2369 -1040 2816
-1721 120 -182 178 -309 224 -489 26 -98 29 -127 28 -260 0 -141 -2 -156 -32
-246 -89 -267 -354 -550 -792 -845 -460 -310 -925 -516 -1657 -735 -791 -236
-1551 -383 -2193 -425 -52 -3 -108 -8 -125 -10 -63 -9 -756 -11 -890 -3 -726
43 -1372 175 -1940 394 -469 181 -800 442 -950 748 -70 143 -90 234 -90 407 0
150 6 191 52 335 58 184 216 455 373 640 312 367 784 700 1501 1056 476 237
988 438 1554 612 205 63 576 136 792 156 65 7 137 14 161 17 102 12 519 5 632
-11 231 -32 400 -93 529 -189 39 -29 71 -21 71 17 0 31 -14 47 -90 101 -144
103 -330 173 -575 217 -116 20 -162 23 -430 23 -389 1 -573 -16 -879 -80 -872
-184 -2140 -729 -2836 -1219 -315 -221 -535 -428 -729 -685 -338 -448 -457
-896 -346 -1309 66 -244 244 -506 470 -691 490 -401 1428 -697 2520 -796 277
-26 1198 -25 1330 1 11 2 58 7 105 10 47 4 101 8 120 11 19 2 111 13 204 24
726 87 1766 339 2433 588 671 252 1241 597 1633 991 199 200 297 350 363 552
92 282 56 631 -98 957 -211 446 -659 873 -1340 1280 -601 358 -1294 636 -1914
766 -141 30 -408 71 -526 82 -44 3 -89 9 -100 11 -26 7 -699 16 -705 10z"/>
</g>
</svg>
