<?xml version="1.0" standalone="no"?>
<!DOCTYPE svg PUBLIC "-//W3C//DTD SVG 20010904//EN"
 "http://www.w3.org/TR/2001/REC-SVG-20010904/DTD/svg10.dtd">
<svg version="1.0" xmlns="http://www.w3.org/2000/svg"
 width="704.000000pt" height="124.000000pt" viewBox="0 0 704.000000 124.000000"
 preserveAspectRatio="xMidYMid meet">

<g transform="translate(0.000000,124.000000) scale(0.100000,-0.100000)"
fill="#000000" stroke="none">
<path d="M4532 1084 c3 -5 2 -19 -3 -31 -7 -19 -12 -21 -37 -14 -21 6 -39 3
-68 -11 -21 -10 -50 -18 -64 -16 -14 1 -31 -2 -39 -7 -10 -6 -18 -3 -25 7 -8
13 -14 14 -40 3 -18 -8 -51 -11 -81 -8 -27 3 -105 6 -172 6 -68 1 -123 6 -123
10 0 5 -21 7 -46 6 -29 -2 -48 2 -53 10 -6 10 -12 7 -25 -10 -9 -13 -16 -29
-16 -37 0 -7 -5 -10 -10 -7 -6 4 -17 2 -25 -5 -10 -9 -16 -7 -23 7 -10 16 -13
16 -64 0 -30 -9 -64 -17 -76 -17 -11 0 -23 -4 -27 -9 -3 -6 -35 -9 -70 -7 -47
2 -65 -1 -65 -10 0 -24 -94 -11 -128 18 -17 14 -28 29 -25 32 4 3 1 6 -5 6 -7
0 -12 -9 -12 -20 0 -11 -4 -20 -10 -20 -5 0 -10 7 -10 16 0 12 -6 15 -22 11
-44 -10 -99 -34 -101 -43 -1 -5 -25 -9 -52 -9 -33 0 -62 -7 -86 -21 -22 -13
-46 -20 -61 -17 -14 3 -40 -3 -58 -12 -22 -12 -35 -14 -43 -6 -12 12 -96 3
-116 -12 -7 -6 -30 -12 -51 -12 -21 -1 -46 -7 -55 -15 -9 -8 -44 -14 -83 -15
-104 -4 -225 -17 -244 -27 -10 -5 -18 -15 -18 -22 0 -8 -6 -16 -13 -19 -9 -3
-12 -16 -9 -37 4 -27 2 -31 -14 -28 -11 2 -18 11 -16 21 2 14 -5 16 -60 12
-35 -2 -121 -16 -193 -30 -71 -13 -132 -25 -134 -25 -2 0 2 -7 9 -15 10 -13 9
-15 -9 -15 -11 0 -21 6 -21 13 -1 7 -6 5 -14 -6 -16 -21 -30 -22 -22 -2 8 22
-7 18 -22 -6 -10 -16 -19 -19 -42 -14 -33 7 -55 -3 -55 -25 0 -9 -11 -16 -25
-18 -49 -5 -156 -36 -196 -56 -39 -20 -44 -24 -44 -43 0 -5 -6 -1 -13 9 -24
31 -137 18 -137 -16 0 -6 -4 -5 -9 3 -7 11 -15 11 -41 2 -18 -6 -47 -11 -64
-11 -54 0 -106 -19 -99 -36 5 -12 1 -13 -21 -3 -23 11 -28 9 -45 -9 -11 -13
-30 -22 -47 -22 -16 0 -85 -16 -153 -35 -72 -20 -147 -35 -179 -35 -46 0 -55
-3 -59 -21 -5 -17 -11 -20 -35 -15 -18 4 -39 -1 -58 -12 l-29 -18 18 -30 c10
-16 25 -35 34 -43 21 -17 106 -24 124 -10 7 6 13 8 13 4 0 -4 6 -3 13 3 7 6
48 14 92 17 111 9 128 13 121 30 -7 18 10 20 17 3 4 -10 8 -10 16 1 6 10 28
15 64 15 30 1 53 4 51 8 -6 9 34 21 46 13 6 -4 8 -11 5 -16 -10 -15 22 -10 38
6 8 8 50 24 94 36 87 24 114 36 126 55 4 8 22 14 40 14 18 0 45 7 60 15 21 11
34 12 48 4 17 -9 27 -4 62 31 39 40 42 41 51 21 11 -25 43 -27 74 -5 13 9 31
13 43 9 15 -5 19 -4 15 4 -4 6 -18 11 -32 11 -31 0 -31 17 0 31 18 9 29 8 48
-5 34 -22 67 -23 113 0 29 14 35 20 22 22 -18 4 -18 5 -1 23 20 22 49 26 41 5
-4 -10 0 -12 14 -9 31 8 22 -5 -18 -26 -48 -25 -41 -26 22 -2 28 10 65 16 84
14 28 -4 33 -2 28 12 -10 24 21 31 53 11 31 -18 67 -23 40 -6 -11 7 -5 10 23
10 24 0 36 4 32 11 -10 15 25 37 47 31 14 -3 21 2 25 17 3 11 10 21 15 21 6 0
8 -6 5 -13 -5 -12 1 -13 66 -8 10 0 17 9 17 21 0 21 16 26 40 10 12 -8 12 -10
-3 -16 -9 -3 -17 -10 -17 -16 0 -16 43 3 62 27 20 26 61 24 51 -2 -5 -12 -2
-13 13 -5 12 6 26 7 36 1 12 -7 30 -2 64 16 27 14 64 25 86 25 22 0 48 5 59
11 15 8 24 7 36 -3 14 -11 15 -10 9 10 -9 29 21 43 39 19 11 -15 14 -15 30 3
37 41 68 17 35 -26 -14 -18 -14 -18 5 -3 11 9 34 20 52 23 17 4 34 14 37 21 3
8 12 12 20 9 8 -3 19 3 25 15 8 15 21 20 49 19 41 0 84 10 92 22 3 4 16 11 30
15 24 7 24 7 7 -12 -9 -11 -15 -22 -12 -25 7 -7 55 14 55 24 0 12 103 -1 111
-13 4 -8 11 -4 19 11 l12 22 23 -22 c24 -22 24 -22 18 -1 -4 17 -1 21 20 21
14 0 38 5 54 12 15 6 34 10 42 9 8 -2 22 7 32 20 15 20 19 21 48 10 17 -8 38
-11 46 -7 9 3 13 2 10 -4 -10 -16 7 -12 44 11 18 11 40 18 48 15 8 -3 11 -1 8
4 -3 5 5 21 18 34 16 16 21 27 14 30 -8 3 -7 8 3 15 16 12 37 15 27 4 -4 -3
-2 -12 4 -19 9 -11 7 -15 -7 -21 -32 -11 -46 -43 -19 -43 8 0 15 -5 15 -11 0
-5 4 -8 9 -5 5 4 21 2 34 -3 20 -8 29 -6 39 6 20 25 89 73 105 73 7 0 13 -11
13 -24 0 -19 -7 -25 -35 -30 -19 -4 -35 -11 -35 -16 0 -13 7 -12 32 1 14 8 23
8 31 0 7 -7 14 -6 22 5 6 9 26 17 43 19 18 1 35 4 38 7 2 3 25 1 50 -4 26 -6
66 -7 92 -2 26 5 53 8 60 7 7 0 25 17 39 38 35 53 47 50 41 -11 -4 -43 -3 -50
13 -50 13 0 16 5 11 22 -5 22 -5 22 21 5 25 -16 26 -16 32 3 4 11 11 18 16 14
6 -3 8 -13 4 -22 -5 -13 -3 -13 14 2 18 17 19 17 26 -3 10 -32 43 -25 87 19
47 47 57 49 55 14 -3 -39 18 -40 34 -2 21 51 66 97 89 91 11 -3 20 -8 20 -11
0 -3 -23 -32 -52 -65 -46 -53 -50 -61 -35 -72 9 -6 14 -15 10 -18 -17 -18 52
-4 75 14 l27 21 -25 -7 c-14 -4 -31 -10 -37 -12 -22 -8 -14 13 13 41 35 34 64
35 64 0 0 -21 3 -24 21 -19 15 5 19 4 15 -4 -9 -14 0 -14 26 0 16 9 25 6 45
-13 25 -23 25 -23 19 -1 -8 27 -10 132 -2 140 10 11 78 -48 72 -63 -3 -8 -9
-20 -12 -28 -7 -18 25 -30 42 -15 7 6 22 8 34 4 11 -3 20 -2 20 3 0 5 9 21 21
36 14 18 25 24 33 17 6 -5 38 -14 71 -21 33 -7 66 -17 73 -22 8 -8 12 -6 12 5
0 32 99 94 108 68 5 -16 43 -13 66 4 42 32 81 12 69 -34 -4 -16 -11 -19 -34
-14 -18 3 -29 1 -29 -6 0 -6 15 -11 33 -11 17 0 56 -3 85 -6 37 -5 52 -3 52 5
0 7 -4 9 -10 6 -19 -12 -10 8 12 27 38 33 83 36 83 5 0 -7 8 -13 18 -15 15 -3
18 0 13 16 -6 17 0 22 29 32 44 15 39 22 -17 25 -24 1 -56 6 -72 10 -25 7 -28
5 -23 -8 5 -13 -2 -19 -26 -25 -18 -5 -34 -5 -35 0 -2 4 -8 6 -12 3 -5 -3 -15
4 -22 14 -22 31 -59 41 -108 30 -59 -13 -196 -7 -192 9 3 14 -14 16 -23 2 -8
-12 -48 -13 -61 -1 -19 19 -214 40 -214 23 0 -5 -18 -12 -40 -16 -21 -3 -43
-13 -48 -22 -8 -14 -14 -14 -71 2 -54 15 -70 15 -112 5 -26 -7 -53 -10 -59 -6
-6 4 -27 7 -46 7 -26 0 -34 4 -30 14 3 7 0 16 -6 20 -6 4 -9 3 -6 -2z"/>
<path d="M5575 1040 c-3 -5 -1 -10 4 -10 6 0 11 5 11 10 0 6 -2 10 -4 10 -3 0
-8 -4 -11 -10z"/>
<path d="M6046 1041 c-3 -5 1 -11 9 -15 8 -3 15 -1 15 4 0 13 -18 22 -24 11z"/>
<path d="M5885 1010 c-3 -5 3 -10 15 -10 12 0 18 5 15 10 -3 6 -10 10 -15 10
-5 0 -12 -4 -15 -10z"/>
<path d="M5965 990 c11 -5 14 -9 8 -9 -7 -1 -13 -8 -13 -17 0 -22 21 -12 31
14 7 19 5 22 -19 21 -24 0 -25 -1 -7 -9z"/>
<path d="M6035 990 c3 -5 8 -10 11 -10 2 0 4 5 4 10 0 6 -5 10 -11 10 -5 0 -7
-4 -4 -10z"/>
<path d="M6140 990 c0 -5 5 -10 11 -10 5 0 7 5 4 10 -3 6 -8 10 -11 10 -2 0
-4 -4 -4 -10z"/>
<path d="M6335 990 c3 -5 8 -10 11 -10 2 0 4 5 4 10 0 6 -5 10 -11 10 -5 0 -7
-4 -4 -10z"/>
<path d="M5860 981 c0 -5 7 -11 15 -15 24 -9 18 -29 -7 -23 -13 3 -32 -1 -43
-9 -17 -12 -18 -16 -5 -24 8 -5 19 -6 25 -2 5 4 18 5 28 4 21 -4 31 20 23 53
-6 23 -36 36 -36 16z"/>
<path d="M5750 970 c0 -5 7 -10 15 -10 8 0 15 5 15 10 0 6 -7 10 -15 10 -8 0
-15 -4 -15 -10z"/>
<path d="M5328 953 c7 -3 16 -2 19 1 4 3 -2 6 -13 5 -11 0 -14 -3 -6 -6z"/>
<path d="M6380 949 c0 -5 5 -7 10 -4 6 3 10 8 10 11 0 2 -4 4 -10 4 -5 0 -10
-5 -10 -11z"/>
<path d="M6055 930 c-3 -5 -2 -10 4 -10 5 0 13 5 16 10 3 6 2 10 -4 10 -5 0
-13 -4 -16 -10z"/>
<path d="M5280 910 c-13 -11 -20 -20 -17 -20 14 0 57 24 57 32 0 14 -16 9 -40
-12z"/>
<path d="M6176 915 c4 -8 11 -15 16 -15 6 0 5 6 -2 15 -7 8 -14 15 -16 15 -2
0 -1 -7 2 -15z"/>
<path d="M4267 900 c-7 -26 -4 -34 11 -29 4 2 5 15 2 29 l-6 25 -7 -25z"/>
<path d="M6471 906 c8 -8 88 -10 95 -3 4 4 -17 7 -46 7 -29 0 -51 -2 -49 -4z"/>
<path d="M5335 890 c-3 -5 -2 -10 4 -10 5 0 13 5 16 10 3 6 2 10 -4 10 -5 0
-13 -4 -16 -10z"/>
<path d="M4540 861 c0 -17 15 -19 28 -5 11 12 9 14 -8 14 -11 0 -20 -4 -20 -9z"/>
<path d="M3145 759 c-9 -13 -6 -16 29 -25 l29 -7 -22 22 c-24 24 -27 25 -36
10z"/>
</g>
</svg>
