<?xml version="1.0" standalone="no"?>
<!DOCTYPE svg PUBLIC "-//W3C//DTD SVG 20010904//EN"
 "http://www.w3.org/TR/2001/REC-SVG-20010904/DTD/svg10.dtd">
<svg version="1.0" xmlns="http://www.w3.org/2000/svg"
 width="2735.000000pt" height="527.000000pt" viewBox="0 0 2735.000000 527.000000"
 preserveAspectRatio="xMidYMid meet">

<g transform="translate(0.000000,527.000000) scale(0.100000,-0.100000)"
fill="#000000" stroke="none">
<path d="M20200 3033 c-649 -8 -2466 -60 -3410 -98 -1704 -69 -4698 -239
-6585 -376 -735 -53 -3947 -303 -4230 -329 -1013 -95 -2055 -230 -3080 -401
-355 -59 -1127 -198 -1132 -203 -3 -3 41 -6 547 -31 1073 -53 2239 -59 3160
-15 685 33 491 16 3475 300 1806 171 3931 340 5610 445 2144 134 3755 194
5700 215 1006 10 1165 13 1855 35 800 26 1228 45 1995 90 610 36 761 53 1013
115 68 16 134 30 148 30 13 0 24 4 24 9 0 4 -123 11 -272 14 -209 4 -387 16
-758 51 -1457 135 -2399 170 -4060 149z"/>
</g>
</svg>
